<svg width="251" height="248" viewBox="0 0 251 248" fill="none" xmlns="http://www.w3.org/2000/svg">
<path d="M249.503 62.2629V185.724L149.523 245.359V2.64098L249.503 62.2629Z" stroke="#003469" stroke-width="3"/>
<path d="M1 85.4075L23.6685 72.437V174.904L1 161.933V85.4075Z" fill="#003469" stroke="#003469"/>
<path d="M76.7773 41.766L107.218 24.2083V223.542L76.7773 205.384V41.766Z" fill="#003469" stroke="#003469"/>
<path d="M39.2109 64.006L66.4131 47.793V199.988L39.2109 183.983V64.006Z" fill="#003469" stroke="#003469"/>
<path d="M114.438 20.2095L147.477 0.967529V247.045L114.438 227.739V20.2095Z" fill="#003469" stroke="#003469"/>
<path d="M184.939 40.6593L178.462 42.6049V206.681L185.586 208.627L169.395 216.409V32.2285L184.939 40.6593Z" fill="#003469"/>
<path d="M210.845 55.5756L205.664 58.8182V195.008L211.493 195.656L195.301 203.439V47.1448L210.845 55.5756Z" fill="#003469"/>
<path d="M236.755 69.8429L234.164 73.0855V181.389L237.403 182.037L221.211 189.82V61.4121L236.755 69.8429Z" fill="#003469"/>
</svg>
