<svg width="251" height="248" viewBox="0 0 251 248" fill="none" xmlns="http://www.w3.org/2000/svg">
<path d="M249.5 60.9196V185.282L149.5 245.349V2.611L249.5 60.9196Z" stroke="#003469" stroke-width="3"/>
<path d="M1 85.6447L8.5 81.8389V166L1 162.147V85.6447Z" fill="#003469" stroke="#003469"/>
<path d="M74 44.4449L90 36V211L74 202.35V44.4449Z" fill="#003469" stroke="#003469"/>
<path d="M36 66.2131L43.5 61.5V185.5L36 181.194V66.2131Z" fill="#003469" stroke="#003469"/>
<path d="M122.703 18.1266L147.883 1.79272L147.5 247L122.703 231.056V18.1266Z" fill="#003469" stroke="#003469"/>
<path d="M211.43 38.6443L194.643 28.0869V218.121L211.43 208.559V38.6443Z" fill="#003469" stroke="#003469"/>
<line x1="2.12319" y1="86.4855" x2="148.886" y2="1.51827" stroke="#003469" stroke-width="3.5"/>
<path d="M1.59734 160.752L147.282 243.817" stroke="#003469" stroke-width="4"/>
<path d="M122.098 18.6191C122.098 18.6191 103.144 77.9705 91 116" stroke="#003469"/>
<path d="M194.645 30.4771C194.645 30.4771 168.044 79.5538 151 111" stroke="#003469"/>
<path d="M248.602 60.3569C248.602 60.3569 225.947 96.7786 211.431 120.116" stroke="#003469"/>
<path d="M194 122C194 122 167.793 195.747 151 243" stroke="#003469"/>
<path d="M248 130C248 130 225.713 176.423 211.433 206.169" stroke="#003469"/>
<line x1="121.974" y1="116.69" x2="90.4719" y2="210.16" stroke="#003469"/>
<line x1="73.4659" y1="46.1815" x2="43.4659" y2="123.182" stroke="#003469"/>
<line x1="74.4457" y1="122.227" x2="43.4458" y2="183.227" stroke="#003469"/>
<line x1="35.4563" y1="68.2045" x2="9.45626" y2="126.205" stroke="#003469"/>
<line x1="36.3947" y1="127.307" x2="8.39468" y2="163.307" stroke="#003469"/>
<line x1="91.4608" y1="37.8058" x2="122.964" y2="112.555" stroke="#003469"/>
<line x1="150.467" y1="4.82018" x2="193.914" y2="117.545" stroke="#003469"/>
<line y1="-0.5" x2="93.2687" y2="-0.5" transform="matrix(0.385674 0.922635 -0.923516 0.383559 211.43 40.0391)" stroke="#003469"/>
<line x1="150.741" y1="115.137" x2="194.459" y2="216.802" stroke="#003469"/>
<line x1="211.427" y1="123.74" x2="249.029" y2="185.591" stroke="#003469"/>
<line x1="90.4795" y1="120.858" x2="121.983" y2="227.54" stroke="#003469"/>
<line x1="43.4389" y1="63.7606" x2="73.4389" y2="118.761" stroke="#003469"/>
<line x1="43.4634" y1="125.812" x2="73.4634" y2="199.812" stroke="#003469"/>
<line x1="8.4129" y1="82.718" x2="36.4129" y2="123.718" stroke="#003469"/>
<line x1="8.43355" y1="130.751" x2="35.4336" y2="177.751" stroke="#003469"/>
<line y1="-2.5" x2="134.142" y2="-2.5" transform="matrix(0.99219 -0.124738 0.125533 0.99209 1.60156 132.068)" stroke="#003469" stroke-width="5"/>
<line y1="-2.5" x2="106.834" y2="-2.5" transform="matrix(-0.987659 -0.156621 0.15761 -0.987502 251 126.092)" stroke="#003469" stroke-width="5"/>
</svg>
