<svg width="252" height="250" viewBox="0 0 252 250" fill="none" xmlns="http://www.w3.org/2000/svg">
<path d="M70.0938 43.3892L144.214 2.22852V108.509L70.0938 114.653V43.3892Z" fill="#003469" stroke="#003469"/>
<path d="M215.824 39.089L150.497 1V108.509L215.824 113.203V39.089Z" fill="#003469" stroke="#003469"/>
<path d="M215.824 211.104L150.498 249V115.267L215.824 118.339V211.104Z" fill="#003469" stroke="#003469"/>
<path d="M251 59.9766L220.221 41.9004V113.424L251 115.657V59.9766Z" fill="#003469" stroke="#003469"/>
<path d="M250.371 190.831L220.22 208.646V118.543L250.371 120.632V190.831Z" fill="#003469" stroke="#003469"/>
<path d="M1 82.707L63.1859 47.6897V115.267L1 122.025V82.707Z" fill="#003469" stroke="#003469"/>
<path d="M70.7227 206.189L144.215 247.964V115.881L70.7227 121.41V206.189Z" fill="#003469" stroke="#003469"/>
<path d="M1.62891 167.486L63.8148 202.503V122.025L1.62891 126.325V167.486Z" fill="#003469" stroke="#003469"/>
</svg>
